<svg width="144" height="144" viewBox="0 0 144 144" fill="none" xmlns="http://www.w3.org/2000/svg">
<path d="M72 80.4C75.9764 80.4 79.2 76.6392 79.2 72C79.2 67.3608 75.9764 63.6 72 63.6C68.0235 63.6 64.8 67.3608 64.8 72C64.8 76.6392 68.0235 80.4 72 80.4Z" stroke="#E87B1E" stroke-width="2.64" stroke-linecap="round"/>
<path d="M57.6 62.4C56 68.8 56 75.2 57.6 81.6" stroke="#E87B1E" stroke-width="2.64" stroke-linecap="round"/>
<path d="M86.4 62.4C88 68.8 88 75.2 86.4 81.6" stroke="#E87B1E" stroke-width="2.64" stroke-linecap="round"/>
<path d="M48 55.2C44.8 66.4 44.8 77.6 48 88.8" stroke="#E87B1E" stroke-width="2.64" stroke-linecap="round"/>
<path d="M95.9999 55.2C99.1999 66.4 99.1999 77.6 95.9999 88.8" stroke="#E87B1E" stroke-width="2.64" stroke-linecap="round"/>
<path d="M39.6 48C34 64 34 80 39.6 96" stroke="#E87B1E" stroke-width="2.64" stroke-linecap="round"/>
<path d="M104.4 48C110 64 110 80 104.4 96" stroke="#E87B1E" stroke-width="2.64" stroke-linecap="round"/>
<path d="M32.4 39.6C23.6 61.2 23.6 82.8 32.4 104.4" stroke="#E87B1E" stroke-width="2.64" stroke-linecap="round"/>
<path d="M111.6 39.6C120.4 61.2 120.4 82.8 111.6 104.4" stroke="#E87B1E" stroke-width="2.64" stroke-linecap="round"/>
<path d="M52.8 50.4C65.6 39.2 78.4 39.2 91.2 50.4" stroke="#E87B1E" stroke-width="2.64" stroke-linecap="round"/>
<path d="M43.2 43.2C62.4 28.8 81.6 28.8 100.8 43.2" stroke="#E87B1E" stroke-width="2.64" stroke-linecap="round"/>
<path d="M33.6 36C59.2 20 84.8 20 110.4 36" stroke="#E87B1E" stroke-width="2.64" stroke-linecap="round"/>
<path d="M52.8 93.6C65.6 104.8 78.4 104.8 91.2 93.6" stroke="#E87B1E" stroke-width="2.64" stroke-linecap="round"/>
<path d="M43.2 100.8C62.4 115.2 81.6 115.2 100.8 100.8" stroke="#E87B1E" stroke-width="2.64" stroke-linecap="round"/>
<path d="M33.6 108C59.2 124 84.8 124 110.4 108" stroke="#E87B1E" stroke-width="2.64" stroke-linecap="round"/>
</svg>
