<svg width="18" height="18" viewBox="0 0 18 18" fill="none" xmlns="http://www.w3.org/2000/svg">
<path d="M6.75001 2.7H4.05001C3.30443 2.7 2.70001 3.30442 2.70001 4.05V6.75C2.70001 7.49558 3.30443 8.1 4.05001 8.1H6.75001C7.49559 8.1 8.10001 7.49558 8.10001 6.75V4.05C8.10001 3.30442 7.49559 2.7 6.75001 2.7Z" fill="white"/>
<path opacity="0.7" d="M13.95 2.7H11.25C10.5044 2.7 9.89999 3.30442 9.89999 4.05V6.75C9.89999 7.49558 10.5044 8.1 11.25 8.1H13.95C14.6956 8.1 15.3 7.49558 15.3 6.75V4.05C15.3 3.30442 14.6956 2.7 13.95 2.7Z" fill="white"/>
<path opacity="0.7" d="M6.75001 9.9H4.05001C3.30443 9.9 2.70001 10.5044 2.70001 11.25V13.95C2.70001 14.6956 3.30443 15.3 4.05001 15.3H6.75001C7.49559 15.3 8.10001 14.6956 8.10001 13.95V11.25C8.10001 10.5044 7.49559 9.9 6.75001 9.9Z" fill="white"/>
<path opacity="0.5" d="M13.95 9.9H11.25C10.5044 9.9 9.89999 10.5044 9.89999 11.25V13.95C9.89999 14.6956 10.5044 15.3 11.25 15.3H13.95C14.6956 15.3 15.3 14.6956 15.3 13.95V11.25C15.3 10.5044 14.6956 9.9 13.95 9.9Z" fill="white"/>
</svg>
